<?xml version="1.0" encoding="utf-8"?>
<!-- Generator: Adobe Illustrator 27.4.0, SVG Export Plug-In . SVG Version: 6.00 Build 0)  -->
<svg version="1.1" id="anchor" xmlns="http://www.w3.org/2000/svg" xmlns:xlink="http://www.w3.org/1999/xlink" x="0px" y="0px"
	 viewBox="0 0 24 24" style="enable-background:new 0 0 24 24;" xml:space="preserve">
<style type="text/css">
	.st0{fill:#FFFFFF;}
</style>
<path class="st0" d="M19,13h-2c-0.6,0-1,0.4-1,1s0.4,1,1,1h0.9c-0.4,2.5-2.4,4.5-4.9,4.9V11h1c0.6,0,1-0.4,1-1s-0.4-1-1-1h-1V7.8
	c1.6-0.6,2.4-2.3,1.8-3.8c-0.6-1.6-2.3-2.4-3.8-1.8S8.6,4.4,9.2,6c0.3,0.9,1,1.5,1.8,1.8V9h-1c-0.6,0-1,0.4-1,1s0.4,1,1,1h1v8.9
	c-2.5-0.4-4.5-2.4-4.9-4.9H7c0.6,0,1-0.4,1-1s-0.4-1-1-1H5c-0.6,0-1,0.4-1,1c0,4.4,3.6,8,8,8s8-3.6,8-8C20,13.4,19.6,13,19,13z
	 M12,6c-0.6,0-1-0.4-1-1s0.4-1,1-1s1,0.4,1,1S12.6,6,12,6z"/>
</svg>
