<?xml version="1.0" encoding="utf-8"?>
<!-- Generator: Adobe Illustrator 27.4.0, SVG Export Plug-In . SVG Version: 6.00 Build 0)  -->
<svg version="1.1" id="star" xmlns="http://www.w3.org/2000/svg" xmlns:xlink="http://www.w3.org/1999/xlink" x="0px" y="0px"
	 viewBox="0 0 24 24" style="enable-background:new 0 0 24 24;" xml:space="preserve">
<style type="text/css">
	.st0{fill:#FFFFFF;}
</style>
<path class="st0" d="M22,9.7C21.9,9.3,21.5,9,21.1,9l-5.7-0.8L12.9,3c-0.2-0.5-0.8-0.7-1.3-0.5c-0.2,0.1-0.4,0.3-0.5,0.5L8.6,8.2
	L2.9,9C2.5,9.1,2.2,9.3,2,9.7c-0.1,0.4,0,0.7,0.2,1l4.1,4l-1,5.7c-0.1,0.4,0.1,0.8,0.4,1c0.3,0.2,0.7,0.2,1,0.1l5.1-2.7l5.1,2.7
	c0.1,0.1,0.3,0.1,0.5,0.1c0.2,0,0.4-0.1,0.6-0.2c0.3-0.2,0.5-0.6,0.4-1l-1-5.7l4.1-4C22,10.4,22.1,10,22,9.7z M15.9,13.7
	c-0.2,0.2-0.3,0.6-0.3,0.9l0.7,4.2l-3.8-2c-0.3-0.2-0.6-0.2-0.9,0l-3.8,2l0.7-4.2c0.1-0.3-0.1-0.7-0.3-0.9l-3-3l4.2-0.6
	c0.3,0,0.6-0.3,0.8-0.6L12,5.7l1.9,3.8c0.1,0.3,0.4,0.5,0.8,0.6l4.2,0.6L15.9,13.7z"/>
</svg>
